<?xml version="1.0" encoding="utf-8"?>
<!-- Generator: Adobe Illustrator 16.0.3, SVG Export Plug-In . SVG Version: 6.00 Build 0)  -->
<!DOCTYPE svg PUBLIC "-//W3C//DTD SVG 1.1//EN" "http://www.w3.org/Graphics/SVG/1.1/DTD/svg11.dtd">
<svg version="1.1" id="Layer_1" xmlns="http://www.w3.org/2000/svg" xmlns:xlink="http://www.w3.org/1999/xlink" x="0px" y="0px"
	 width="1280px" height="459.493px" viewBox="0 0 1280 459.493" enable-background="new 0 0 1280 459.493" xml:space="preserve">
<rect x="22.5" y="186.5" fill="#FF1D25" stroke="#000000" stroke-miterlimit="10" width="36" height="27"/>
<rect x="22.5" y="213.5" fill="#FF1D25" stroke="#000000" stroke-miterlimit="10" width="36" height="27"/>
<rect x="22.5" y="240.5" fill="#FF1D25" stroke="#000000" stroke-miterlimit="10" width="36" height="27"/>
<rect x="22.5" y="267.5" fill="#FF1D25" stroke="#000000" stroke-miterlimit="10" width="36" height="27"/>
<rect x="58.5" y="186.5" fill="#F7931E" stroke="#000000" stroke-miterlimit="10" width="36" height="27"/>
<rect x="58.5" y="213.5" fill="#FCC062" stroke="#000000" stroke-miterlimit="10" width="36" height="27"/>
<rect x="58.5" y="240.5" fill="#FCC062" stroke="#000000" stroke-miterlimit="10" width="36" height="27"/>
<rect x="58.5" y="267.5" fill="#FCC062" stroke="#000000" stroke-miterlimit="10" width="36" height="27"/>
<rect x="94.5" y="186.5" fill="#00A99D" stroke="#000000" stroke-miterlimit="10" width="36" height="27"/>
<rect x="94.5" y="213.5" fill="#33BAB1" stroke="#000000" stroke-miterlimit="10" width="36" height="27"/>
<rect x="94.5" y="240.5" fill="#33BAB1" stroke="#000000" stroke-miterlimit="10" width="36" height="27"/>
<rect x="94.5" y="267.5" fill="#33BAB1" stroke="#000000" stroke-miterlimit="10" width="36" height="27"/>
<rect x="130.5" y="186.5" fill="#7AC943" stroke="#000000" stroke-miterlimit="10" width="36" height="27"/>
<rect x="130.5" y="213.5" fill="#95D469" stroke="#000000" stroke-miterlimit="10" width="36" height="27"/>
<rect x="130.5" y="240.5" fill="#95D469" stroke="#000000" stroke-miterlimit="10" width="36" height="27"/>
<rect x="130.5" y="267.5" fill="#95D469" stroke="#000000" stroke-miterlimit="10" width="36" height="27"/>
<rect x="1091.5" y="130.5" fill="#FF1D25" stroke="#000000" stroke-miterlimit="10" width="36" height="27"/>
<rect x="1091.5" y="157.5" fill="#FF1D25" stroke="#000000" stroke-miterlimit="10" width="36" height="27"/>
<rect x="1091.5" y="184.5" fill="#FF1D25" stroke="#000000" stroke-miterlimit="10" width="36" height="27"/>
<rect x="1091.5" y="211.5" fill="#FF1D25" stroke="#000000" stroke-miterlimit="10" width="36" height="27"/>
<rect x="1127.5" y="130.5" fill="#FFFFFF" stroke="#000000" stroke-miterlimit="10" width="48" height="27"/>
<rect x="1127.5" y="157.5" fill="#FF931E" stroke="#000000" stroke-miterlimit="10" width="48" height="27"/>
<rect x="1127.5" y="184.5" fill="#FF931E" stroke="#000000" stroke-miterlimit="10" width="48" height="27"/>
<rect x="1127.5" y="211.5" fill="#FF931E" stroke="#000000" stroke-miterlimit="10" width="48" height="27"/>
<rect x="1175.5" y="130.5" fill="#FFFFFF" stroke="#000000" stroke-miterlimit="10" width="53" height="27"/>
<rect x="1175.5" y="157.5" fill="#FCC062" stroke="#000000" stroke-miterlimit="10" width="53" height="27"/>
<rect x="1175.5" y="184.5" fill="#FCC062" stroke="#000000" stroke-miterlimit="10" width="53" height="27"/>
<rect x="1175.5" y="211.5" fill="#FCC062" stroke="#000000" stroke-miterlimit="10" width="53" height="27"/>
<rect x="1091.5" y="238.5" fill="#FF1D25" stroke="#000000" stroke-miterlimit="10" width="36" height="27"/>
<rect x="1091.5" y="265.5" fill="#FF1D25" stroke="#000000" stroke-miterlimit="10" width="36" height="27"/>
<rect x="1091.5" y="292.5" fill="#FF1D25" stroke="#000000" stroke-miterlimit="10" width="36" height="27"/>
<rect x="1091.5" y="319.5" fill="#FF1D25" stroke="#000000" stroke-miterlimit="10" width="36" height="27"/>
<rect x="1127.5" y="238.5" fill="#00A99D" stroke="#000000" stroke-miterlimit="10" width="48" height="27"/>
<rect x="1127.5" y="265.5" fill="#00A99D" stroke="#000000" stroke-miterlimit="10" width="48" height="27"/>
<rect x="1127.5" y="292.5" fill="#00A99D" stroke="#000000" stroke-miterlimit="10" width="48" height="27"/>
<rect x="1127.5" y="319.5" fill="#7AC943" stroke="#000000" stroke-miterlimit="10" width="48" height="27"/>
<rect x="1175.5" y="238.5" fill="#66CBC4" stroke="#000000" stroke-miterlimit="10" width="53" height="27"/>
<rect x="1175.5" y="265.5" fill="#66CBC4" stroke="#000000" stroke-miterlimit="10" width="53" height="27"/>
<rect x="1175.5" y="292.5" fill="#66CBC4" stroke="#000000" stroke-miterlimit="10" width="53" height="27"/>
<rect x="1175.5" y="319.5" fill="#AFDF8E" stroke="#000000" stroke-miterlimit="10" width="53" height="27"/>
<rect x="1091.5" y="346.5" fill="#FF1D25" stroke="#000000" stroke-miterlimit="10" width="36" height="27"/>
<rect x="1091.5" y="373.5" fill="#FF1D25" stroke="#000000" stroke-miterlimit="10" width="36" height="27"/>
<rect x="1127.5" y="346.5" fill="#7AC943" stroke="#000000" stroke-miterlimit="10" width="48" height="27"/>
<rect x="1127.5" y="373.5" fill="#7AC943" stroke="#000000" stroke-miterlimit="10" width="48" height="27"/>
<rect x="1175.5" y="346.5" fill="#AFDF8E" stroke="#000000" stroke-miterlimit="10" width="53" height="27"/>
<rect x="1175.5" y="373.5" fill="#AFDF8E" stroke="#000000" stroke-miterlimit="10" width="53" height="27"/>
<text transform="matrix(1 0 0 1 31.3496 206.1084)" font-family="'MyriadPro-Regular'" font-size="18">ID</text>
<text transform="matrix(1 0 0 1 67.5132 206.1084)" font-family="'MyriadPro-Regular'" font-size="18">a1</text>
<text transform="matrix(1 0 0 1 103.7681 206.1084)" font-family="'MyriadPro-Regular'" font-size="18">a2</text>
<text transform="matrix(1 0 0 1 140.3691 206.1084)" font-family="'MyriadPro-Regular'" font-size="18">a3</text>
<text transform="matrix(1 0 0 1 1100.6309 150.6704)" font-family="'MyriadPro-Regular'" font-size="18">ID</text>
<text transform="matrix(1 0 0 1 36.8726 259.5137)" font-family="'MyriadPro-Regular'" font-size="18">2</text>
<text transform="matrix(1 0 0 1 36.8726 232.7158)" font-family="'MyriadPro-Regular'" font-size="18">1</text>
<text transform="matrix(1 0 0 1 36.8726 287.3501)" font-family="'MyriadPro-Regular'" font-size="18">3</text>
<text transform="matrix(1 0 0 1 1104.1533 203.5894)" font-family="'MyriadPro-Regular'" font-size="18">2</text>
<text transform="matrix(1 0 0 1 1104.1533 176.7915)" font-family="'MyriadPro-Regular'" font-size="18">1</text>
<text transform="matrix(1 0 0 1 1104.1533 231.4258)" font-family="'MyriadPro-Regular'" font-size="18">3</text>
<text transform="matrix(1 0 0 1 1104.0654 285.4941)" font-family="'MyriadPro-Regular'" font-size="18">2</text>
<text transform="matrix(1 0 0 1 1104.0654 258.6963)" font-family="'MyriadPro-Regular'" font-size="18">1</text>
<text transform="matrix(1 0 0 1 1104.0654 313.3306)" font-family="'MyriadPro-Regular'" font-size="18">3</text>
<text transform="matrix(1 0 0 1 1104.7188 365.8403)" font-family="'MyriadPro-Regular'" font-size="18">2</text>
<text transform="matrix(1 0 0 1 1104.7188 339.0425)" font-family="'MyriadPro-Regular'" font-size="18">1</text>
<text transform="matrix(1 0 0 1 1104.7188 393.6768)" font-family="'MyriadPro-Regular'" font-size="18">3</text>
<text transform="matrix(1 0 0 1 1142.0947 176.7915)" font-family="'MyriadPro-Regular'" font-size="18">a1</text>
<text transform="matrix(1 0 0 1 1142.0947 258.6963)" font-family="'MyriadPro-Regular'" font-size="18">a2</text>
<text transform="matrix(1 0 0 1 1142.0947 339.0425)" font-family="'MyriadPro-Regular'" font-size="18">a3</text>
<text transform="matrix(1 0 0 1 1142.0947 203.5894)" font-family="'MyriadPro-Regular'" font-size="18">a1</text>
<text transform="matrix(1 0 0 1 1142.0947 285.4941)" font-family="'MyriadPro-Regular'" font-size="18">a2</text>
<text transform="matrix(1 0 0 1 1142.0947 365.8403)" font-family="'MyriadPro-Regular'" font-size="18">a3</text>
<text transform="matrix(1 0 0 1 1143.0195 232.2686)" font-family="'MyriadPro-Regular'" font-size="18">a1</text>
<text transform="matrix(1 0 0 1 1143.0195 314.1733)" font-family="'MyriadPro-Regular'" font-size="18">a2</text>
<text transform="matrix(1 0 0 1 1143.0195 394.5195)" font-family="'MyriadPro-Regular'" font-size="18">a3</text>
<text transform="matrix(1 0 0 1 1138.7813 150.6704)" font-family="'MyriadPro-Regular'" font-size="18">key</text>
<text transform="matrix(1 0 0 1 1181.4609 150.6704)" font-family="'MyriadPro-Regular'" font-size="18">value</text>
<text transform="matrix(1 0 0 1 43.7681 319.5)" font-family="'MyriadPro-Regular'" font-size="18">wide format</text>
<text transform="matrix(1 0 0 1 1113.5977 424.6699)" font-family="'MyriadPro-Regular'" font-size="18">long format</text>
<text transform="matrix(1 0 0 1 352.5654 32.2778)" font-family="'MyriadPro-Regular'" font-size="21">gather(data, key = &quot;key&quot;, value = &quot;value&quot;, c(”a1”,  “a2”, ”a3”))</text>
<rect x="327.5" y="62.5" fill="#FF1D25" stroke="#000000" stroke-miterlimit="10" width="36" height="27"/>
<rect x="327.5" y="89.5" fill="#FF1D25" stroke="#000000" stroke-miterlimit="10" width="36" height="27"/>
<rect x="327.5" y="116.5" fill="#FF1D25" stroke="#000000" stroke-miterlimit="10" width="36" height="27"/>
<rect x="327.5" y="143.5" fill="#FF1D25" stroke="#000000" stroke-miterlimit="10" width="36" height="27"/>
<rect x="363.5" y="62.5" fill="#F7931E" stroke="#000000" stroke-miterlimit="10" width="36" height="27"/>
<rect x="363.5" y="89.5" fill="#FCC062" stroke="#000000" stroke-miterlimit="10" width="36" height="27"/>
<rect x="363.5" y="116.5" fill="#FCC062" stroke="#000000" stroke-miterlimit="10" width="36" height="27"/>
<rect x="363.5" y="143.5" fill="#FCC062" stroke="#000000" stroke-miterlimit="10" width="36" height="27"/>
<rect x="363.5" y="186.5" fill="#00A99D" stroke="#000000" stroke-miterlimit="10" width="36" height="27"/>
<rect x="363.5" y="213.5" fill="#33BAB1" stroke="#000000" stroke-miterlimit="10" width="36" height="27"/>
<rect x="363.5" y="240.5" fill="#33BAB1" stroke="#000000" stroke-miterlimit="10" width="36" height="27"/>
<rect x="363.5" y="267.5" fill="#33BAB1" stroke="#000000" stroke-miterlimit="10" width="36" height="27"/>
<rect x="363.5" y="312.5" fill="#7AC943" stroke="#000000" stroke-miterlimit="10" width="36" height="27"/>
<rect x="363.5" y="339.5" fill="#95D469" stroke="#000000" stroke-miterlimit="10" width="36" height="27"/>
<rect x="363.5" y="366.5" fill="#95D469" stroke="#000000" stroke-miterlimit="10" width="36" height="27"/>
<rect x="363.5" y="393.5" fill="#95D469" stroke="#000000" stroke-miterlimit="10" width="36" height="27"/>
<text transform="matrix(1 0 0 1 336.3496 82.1084)" font-family="'MyriadPro-Regular'" font-size="18">ID</text>
<text transform="matrix(1 0 0 1 372.5132 82.1084)" font-family="'MyriadPro-Regular'" font-size="18">a1</text>
<text transform="matrix(1 0 0 1 372.7681 206.1084)" font-family="'MyriadPro-Regular'" font-size="18">a2</text>
<text transform="matrix(1 0 0 1 373.3691 332.1084)" font-family="'MyriadPro-Regular'" font-size="18">a3</text>
<text transform="matrix(1 0 0 1 341.8726 135.5137)" font-family="'MyriadPro-Regular'" font-size="18">2</text>
<text transform="matrix(1 0 0 1 341.8726 108.7158)" font-family="'MyriadPro-Regular'" font-size="18">1</text>
<text transform="matrix(1 0 0 1 341.8726 163.3501)" font-family="'MyriadPro-Regular'" font-size="18">3</text>
<rect x="327.5" y="186.5" fill="#FF1D25" stroke="#000000" stroke-miterlimit="10" width="36" height="27"/>
<rect x="327.5" y="213.5" fill="#FF1D25" stroke="#000000" stroke-miterlimit="10" width="36" height="27"/>
<rect x="327.5" y="240.5" fill="#FF1D25" stroke="#000000" stroke-miterlimit="10" width="36" height="27"/>
<rect x="327.5" y="267.5" fill="#FF1D25" stroke="#000000" stroke-miterlimit="10" width="36" height="27"/>
<text transform="matrix(1 0 0 1 336.3496 206.1084)" font-family="'MyriadPro-Regular'" font-size="18">ID</text>
<text transform="matrix(1 0 0 1 341.8726 259.5137)" font-family="'MyriadPro-Regular'" font-size="18">2</text>
<text transform="matrix(1 0 0 1 341.8726 232.7158)" font-family="'MyriadPro-Regular'" font-size="18">1</text>
<text transform="matrix(1 0 0 1 341.8726 287.3501)" font-family="'MyriadPro-Regular'" font-size="18">3</text>
<rect x="327.5" y="312.5" fill="#FF1D25" stroke="#000000" stroke-miterlimit="10" width="36" height="27"/>
<rect x="327.5" y="339.5" fill="#FF1D25" stroke="#000000" stroke-miterlimit="10" width="36" height="27"/>
<rect x="327.5" y="366.5" fill="#FF1D25" stroke="#000000" stroke-miterlimit="10" width="36" height="27"/>
<rect x="327.5" y="393.5" fill="#FF1D25" stroke="#000000" stroke-miterlimit="10" width="36" height="27"/>
<text transform="matrix(1 0 0 1 336.3496 332.1084)" font-family="'MyriadPro-Regular'" font-size="18">ID</text>
<text transform="matrix(1 0 0 1 341.8726 385.5137)" font-family="'MyriadPro-Regular'" font-size="18">2</text>
<text transform="matrix(1 0 0 1 341.8726 358.7158)" font-family="'MyriadPro-Regular'" font-size="18">1</text>
<text transform="matrix(1 0 0 1 341.8726 413.3496)" font-family="'MyriadPro-Regular'" font-size="18">3</text>
<rect x="620.5" y="61.5" fill="#FF1D25" stroke="#000000" stroke-miterlimit="10" width="36" height="27"/>
<rect x="620.5" y="88.5" fill="#FF1D25" stroke="#000000" stroke-miterlimit="10" width="36" height="27"/>
<rect x="620.5" y="115.5" fill="#FF1D25" stroke="#000000" stroke-miterlimit="10" width="36" height="27"/>
<rect x="620.5" y="142.5" fill="#FF1D25" stroke="#000000" stroke-miterlimit="10" width="36" height="27"/>
<rect x="656.5" y="61.5" fill="#F7931E" stroke="#000000" stroke-miterlimit="10" width="36" height="27"/>
<rect x="692.5" y="88.5" fill="#FCC062" stroke="#000000" stroke-miterlimit="10" width="36" height="27"/>
<rect x="692.5" y="115.5" fill="#FCC062" stroke="#000000" stroke-miterlimit="10" width="36" height="27"/>
<rect x="692.5" y="142.5" fill="#FCC062" stroke="#000000" stroke-miterlimit="10" width="36" height="27"/>
<rect x="656.5" y="185.5" fill="#00A99D" stroke="#000000" stroke-miterlimit="10" width="36" height="27"/>
<rect x="692.5" y="212.5" fill="#33BAB1" stroke="#000000" stroke-miterlimit="10" width="36" height="27"/>
<rect x="692.5" y="239.5" fill="#33BAB1" stroke="#000000" stroke-miterlimit="10" width="36" height="27"/>
<rect x="692.5" y="266.5" fill="#33BAB1" stroke="#000000" stroke-miterlimit="10" width="36" height="27"/>
<rect x="656.5" y="311.5" fill="#7AC943" stroke="#000000" stroke-miterlimit="10" width="36" height="27"/>
<rect x="692.5" y="338.5" fill="#95D469" stroke="#000000" stroke-miterlimit="10" width="36" height="27"/>
<rect x="692.5" y="365.5" fill="#95D469" stroke="#000000" stroke-miterlimit="10" width="36" height="27"/>
<rect x="692.5" y="392.5" fill="#95D469" stroke="#000000" stroke-miterlimit="10" width="36" height="27"/>
<text transform="matrix(1 0 0 1 629.3496 81.1084)" font-family="'MyriadPro-Regular'" font-size="18">ID</text>
<text transform="matrix(1 0 0 1 665.5137 81.1084)" font-family="'MyriadPro-Regular'" font-size="18">a1</text>
<text transform="matrix(1 0 0 1 665.7676 205.1084)" font-family="'MyriadPro-Regular'" font-size="18">a2</text>
<text transform="matrix(1 0 0 1 666.3691 331.1084)" font-family="'MyriadPro-Regular'" font-size="18">a3</text>
<text transform="matrix(1 0 0 1 634.8726 134.5137)" font-family="'MyriadPro-Regular'" font-size="18">2</text>
<text transform="matrix(1 0 0 1 634.8726 107.7158)" font-family="'MyriadPro-Regular'" font-size="18">1</text>
<text transform="matrix(1 0 0 1 634.8726 162.3501)" font-family="'MyriadPro-Regular'" font-size="18">3</text>
<rect x="620.5" y="185.5" fill="#FF1D25" stroke="#000000" stroke-miterlimit="10" width="36" height="27"/>
<rect x="620.5" y="212.5" fill="#FF1D25" stroke="#000000" stroke-miterlimit="10" width="36" height="27"/>
<rect x="620.5" y="239.5" fill="#FF1D25" stroke="#000000" stroke-miterlimit="10" width="36" height="27"/>
<rect x="620.5" y="266.5" fill="#FF1D25" stroke="#000000" stroke-miterlimit="10" width="36" height="27"/>
<text transform="matrix(1 0 0 1 629.3496 205.1084)" font-family="'MyriadPro-Regular'" font-size="18">ID</text>
<text transform="matrix(1 0 0 1 634.8726 258.5137)" font-family="'MyriadPro-Regular'" font-size="18">2</text>
<text transform="matrix(1 0 0 1 634.8726 231.7158)" font-family="'MyriadPro-Regular'" font-size="18">1</text>
<text transform="matrix(1 0 0 1 634.8726 286.3501)" font-family="'MyriadPro-Regular'" font-size="18">3</text>
<rect x="620.5" y="311.5" fill="#FF1D25" stroke="#000000" stroke-miterlimit="10" width="36" height="27"/>
<rect x="620.5" y="338.5" fill="#FF1D25" stroke="#000000" stroke-miterlimit="10" width="36" height="27"/>
<rect x="620.5" y="365.5" fill="#FF1D25" stroke="#000000" stroke-miterlimit="10" width="36" height="27"/>
<rect x="620.5" y="392.5" fill="#FF1D25" stroke="#000000" stroke-miterlimit="10" width="36" height="27"/>
<text transform="matrix(1 0 0 1 629.3496 331.1084)" font-family="'MyriadPro-Regular'" font-size="18">ID</text>
<text transform="matrix(1 0 0 1 634.8726 384.5137)" font-family="'MyriadPro-Regular'" font-size="18">2</text>
<text transform="matrix(1 0 0 1 634.8726 357.7158)" font-family="'MyriadPro-Regular'" font-size="18">1</text>
<text transform="matrix(1 0 0 1 634.8726 412.3496)" font-family="'MyriadPro-Regular'" font-size="18">3</text>
<rect x="760.5" y="62.5" fill="#FF1D25" stroke="#000000" stroke-miterlimit="10" width="36" height="27"/>
<rect x="760.5" y="89.5" fill="#FF1D25" stroke="#000000" stroke-miterlimit="10" width="36" height="27"/>
<rect x="760.5" y="116.5" fill="#FF1D25" stroke="#000000" stroke-miterlimit="10" width="36" height="27"/>
<rect x="760.5" y="143.5" fill="#FF1D25" stroke="#000000" stroke-miterlimit="10" width="36" height="27"/>
<rect x="832.5" y="89.5" fill="#FCC062" stroke="#000000" stroke-miterlimit="10" width="36" height="27"/>
<rect x="832.5" y="116.5" fill="#FCC062" stroke="#000000" stroke-miterlimit="10" width="36" height="27"/>
<rect x="832.5" y="143.5" fill="#FCC062" stroke="#000000" stroke-miterlimit="10" width="36" height="27"/>
<rect x="832.5" y="213.5" fill="#33BAB1" stroke="#000000" stroke-miterlimit="10" width="36" height="27"/>
<rect x="832.5" y="240.5" fill="#33BAB1" stroke="#000000" stroke-miterlimit="10" width="36" height="27"/>
<rect x="832.5" y="267.5" fill="#33BAB1" stroke="#000000" stroke-miterlimit="10" width="36" height="27"/>
<rect x="832.5" y="339.5" fill="#95D469" stroke="#000000" stroke-miterlimit="10" width="36" height="27"/>
<rect x="832.5" y="366.5" fill="#95D469" stroke="#000000" stroke-miterlimit="10" width="36" height="27"/>
<rect x="832.5" y="393.5" fill="#95D469" stroke="#000000" stroke-miterlimit="10" width="36" height="27"/>
<text transform="matrix(1 0 0 1 769.3496 82.1084)" font-family="'MyriadPro-Regular'" font-size="18">ID</text>
<text transform="matrix(1 0 0 1 774.873 135.5137)" font-family="'MyriadPro-Regular'" font-size="18">2</text>
<text transform="matrix(1 0 0 1 774.873 108.7158)" font-family="'MyriadPro-Regular'" font-size="18">1</text>
<text transform="matrix(1 0 0 1 774.873 163.3501)" font-family="'MyriadPro-Regular'" font-size="18">3</text>
<rect x="760.5" y="186.5" fill="#FF1D25" stroke="#000000" stroke-miterlimit="10" width="36" height="27"/>
<rect x="760.5" y="213.5" fill="#FF1D25" stroke="#000000" stroke-miterlimit="10" width="36" height="27"/>
<rect x="760.5" y="240.5" fill="#FF1D25" stroke="#000000" stroke-miterlimit="10" width="36" height="27"/>
<rect x="760.5" y="267.5" fill="#FF1D25" stroke="#000000" stroke-miterlimit="10" width="36" height="27"/>
<text transform="matrix(1 0 0 1 769.3496 206.1084)" font-family="'MyriadPro-Regular'" font-size="18">ID</text>
<text transform="matrix(1 0 0 1 774.873 259.5137)" font-family="'MyriadPro-Regular'" font-size="18">2</text>
<text transform="matrix(1 0 0 1 774.873 232.7158)" font-family="'MyriadPro-Regular'" font-size="18">1</text>
<text transform="matrix(1 0 0 1 774.873 287.3501)" font-family="'MyriadPro-Regular'" font-size="18">3</text>
<rect x="760.5" y="312.5" fill="#FF1D25" stroke="#000000" stroke-miterlimit="10" width="36" height="27"/>
<rect x="760.5" y="339.5" fill="#FF1D25" stroke="#000000" stroke-miterlimit="10" width="36" height="27"/>
<rect x="760.5" y="366.5" fill="#FF1D25" stroke="#000000" stroke-miterlimit="10" width="36" height="27"/>
<rect x="760.5" y="393.5" fill="#FF1D25" stroke="#000000" stroke-miterlimit="10" width="36" height="27"/>
<text transform="matrix(1 0 0 1 769.3496 332.1084)" font-family="'MyriadPro-Regular'" font-size="18">ID</text>
<text transform="matrix(1 0 0 1 774.873 385.5137)" font-family="'MyriadPro-Regular'" font-size="18">2</text>
<text transform="matrix(1 0 0 1 774.873 358.7158)" font-family="'MyriadPro-Regular'" font-size="18">1</text>
<text transform="matrix(1 0 0 1 774.873 413.3496)" font-family="'MyriadPro-Regular'" font-size="18">3</text>
<rect x="796.5" y="89.5" fill="#F7931E" stroke="#000000" stroke-miterlimit="10" width="36" height="27"/>
<rect x="796.5" y="213.5" fill="#00A99D" stroke="#000000" stroke-miterlimit="10" width="36" height="27"/>
<rect x="796.5" y="339.5" fill="#7AC943" stroke="#000000" stroke-miterlimit="10" width="36" height="27"/>
<text transform="matrix(1 0 0 1 805.5137 108.1084)" font-family="'MyriadPro-Regular'" font-size="18">a1</text>
<text transform="matrix(1 0 0 1 805.7676 232.1084)" font-family="'MyriadPro-Regular'" font-size="18">a2</text>
<text transform="matrix(1 0 0 1 806.3691 358.1084)" font-family="'MyriadPro-Regular'" font-size="18">a3</text>
<rect x="796.5" y="116.5" fill="#F7931E" stroke="#000000" stroke-miterlimit="10" width="36" height="27"/>
<rect x="796.5" y="240.5" fill="#00A99D" stroke="#000000" stroke-miterlimit="10" width="36" height="27"/>
<rect x="796.5" y="366.5" fill="#7AC943" stroke="#000000" stroke-miterlimit="10" width="36" height="27"/>
<text transform="matrix(1 0 0 1 805.5137 136.1084)" font-family="'MyriadPro-Regular'" font-size="18">a1</text>
<text transform="matrix(1 0 0 1 805.7676 260.1084)" font-family="'MyriadPro-Regular'" font-size="18">a2</text>
<text transform="matrix(1 0 0 1 806.3691 386.1084)" font-family="'MyriadPro-Regular'" font-size="18">a3</text>
<rect x="796.5" y="143.5" fill="#F7931E" stroke="#000000" stroke-miterlimit="10" width="36" height="27"/>
<rect x="796.5" y="267.5" fill="#00A99D" stroke="#000000" stroke-miterlimit="10" width="36" height="27"/>
<rect x="796.5" y="393.5" fill="#7AC943" stroke="#000000" stroke-miterlimit="10" width="36" height="27"/>
<text transform="matrix(1 0 0 1 805.5137 163.1084)" font-family="'MyriadPro-Regular'" font-size="18">a1</text>
<text transform="matrix(1 0 0 1 805.7676 287.1084)" font-family="'MyriadPro-Regular'" font-size="18">a2</text>
<text transform="matrix(1 0 0 1 806.3691 413.1084)" font-family="'MyriadPro-Regular'" font-size="18">a3</text>
<g>
	<g>
		<line fill="none" stroke="#000000" stroke-width="3" stroke-miterlimit="10" x1="181" y1="239.5" x2="286" y2="239.5"/>
		<g>
			<polygon points="282,254.459 307.906,239.5 282,224.541 			"/>
		</g>
	</g>
</g>
<text transform="matrix(1 0 0 1 205.7212 199.5894)"><tspan x="0" y="0" font-family="'MyriadPro-Regular'" font-size="16">separate by</tspan><tspan x="-19.344" y="19.2" font-family="'MyriadPro-Regular'" font-size="16">selected columns</tspan></text>
<g>
	<g>
		<line fill="none" stroke="#000000" stroke-width="3" stroke-miterlimit="10" x1="408" y1="239.5" x2="563" y2="239.5"/>
		<g>
			<polygon points="558,254.459 583.906,239.5 558,224.541 			"/>
		</g>
	</g>
</g>
<text transform="matrix(1 0 0 1 418.0327 198)"><tspan x="0" y="0" font-family="'MyriadPro-Regular'" font-size="16">convert column names </tspan><tspan x="44.031" y="19.2" font-family="'MyriadPro-Regular'" font-size="16">to column</tspan></text>
<g>
	<g>
		<line fill="none" stroke="#000000" stroke-miterlimit="10" x1="674.5" y1="340" x2="674.5" y2="343"/>
		<line fill="none" stroke="#000000" stroke-miterlimit="10" stroke-dasharray="5,5" x1="674.5" y1="348" x2="674.5" y2="389"/>
		<line fill="none" stroke="#000000" stroke-miterlimit="10" x1="674.5" y1="392" x2="674.5" y2="395"/>
		<g>
			<polygon points="669.463,393 674.449,401.635 679.436,393 			"/>
		</g>
	</g>
</g>
<g>
	<g>
		<line fill="none" stroke="#000000" stroke-miterlimit="10" x1="674.5" y1="90" x2="674.5" y2="93"/>
		<line fill="none" stroke="#000000" stroke-miterlimit="10" stroke-dasharray="5,5" x1="674.5" y1="98" x2="674.5" y2="139"/>
		<line fill="none" stroke="#000000" stroke-miterlimit="10" x1="674.5" y1="142" x2="674.5" y2="145"/>
		<g>
			<polygon points="669.463,143 674.449,151.635 679.436,143 			"/>
		</g>
	</g>
</g>
<g>
	<g>
		<line fill="none" stroke="#000000" stroke-miterlimit="10" x1="674.5" y1="214" x2="674.5" y2="217"/>
		<line fill="none" stroke="#000000" stroke-miterlimit="10" stroke-dasharray="5,5" x1="674.5" y1="222" x2="674.5" y2="263"/>
		<line fill="none" stroke="#000000" stroke-miterlimit="10" x1="674.5" y1="266" x2="674.5" y2="269"/>
		<g>
			<polygon points="669.463,267 674.449,275.635 679.436,267 			"/>
		</g>
	</g>
</g>
<g>
	<g>
		<line fill="none" stroke="#000000" stroke-width="3" stroke-miterlimit="10" x1="894" y1="239.5" x2="1049" y2="239.5"/>
		<g>
			<polygon points="1044,254.459 1069.906,239.5 1044,224.541 			"/>
		</g>
	</g>
</g>
<text transform="matrix(1 0 0 1 903.1924 198)"><tspan x="0" y="0" font-family="'MyriadPro-Regular'" font-size="16">name columns with key</tspan><tspan x="6.8" y="19.2" font-family="'MyriadPro-Regular'" font-size="16">and value arguments </tspan></text>
</svg>
